<?xml version="1.0" standalone="no"?>
<!DOCTYPE svg PUBLIC "-//W3C//DTD SVG 20010904//EN"
 "http://www.w3.org/TR/2001/REC-SVG-20010904/DTD/svg10.dtd">
<svg version="1.0" xmlns="http://www.w3.org/2000/svg"
 width="130.000000pt" height="130.000000pt" viewBox="0 0 130.000000 130.000000"
 preserveAspectRatio="xMidYMid meet">
<metadata>
Created by potrace 1.14, written by Peter Selinger 2001-2017
</metadata>
<g transform="translate(0.000000,130.000000) scale(0.100000,-0.100000)"
fill="#000000" stroke="none">
<path d="M553 1220 c-232 -42 -420 -224 -468 -455 -19 -88 -18 -142 0 -230 48
-224 225 -404 444 -451 310 -65 615 132 685 443 20 89 20 147 1 238 -43 203
-198 374 -393 435 -75 23 -198 32 -269 20z m272 -54 c148 -53 271 -171 333
-319 34 -83 42 -241 18 -337 -47 -181 -196 -332 -380 -385 -77 -23 -214 -23
-292 0 -163 47 -304 176 -366 336 -26 69 -36 227 -18 307 19 87 65 176 128
244 70 75 145 124 237 155 60 20 86 23 180 20 72 -2 127 -10 160 -21z"/>
<path d="M473 1008 c-18 -18 -24 -19 -37 -8 -13 10 -19 10 -32 0 -13 -12 -13
-15 0 -29 14 -13 9 -22 -49 -82 -69 -71 -80 -102 -47 -132 33 -30 68 -12 38
19 -20 20 -12 35 53 98 49 48 51 49 70 32 21 -19 41 -14 41 8 0 8 -7 19 -15
26 -14 12 -13 16 10 40 19 20 22 29 13 38 -16 16 -20 15 -45 -10z"/>
<path d="M863 925 c-41 -18 -63 -61 -63 -127 0 -81 45 -128 124 -128 49 0 107
50 87 74 -12 14 -16 13 -43 -9 -33 -28 -46 -30 -81 -14 -49 22 -62 101 -24
143 30 34 73 38 101 10 10 -9 24 -13 36 -9 16 5 18 10 10 26 -13 23 -61 49
-92 49 -13 -1 -37 -7 -55 -15z"/>
<path d="M737 562 c-34 -37 -11 -92 38 -92 50 0 73 60 37 93 -24 22 -55 21
-75 -1z m67 -8 c31 -31 13 -74 -31 -74 -21 0 -43 25 -43 49 0 14 29 41 45 41
7 0 21 -7 29 -16z"/>
<path d="M760 527 c0 -26 26 -33 35 -9 7 18 -2 32 -21 32 -8 0 -14 -10 -14
-23z"/>
<path d="M616 511 c-16 -17 -18 -30 -13 -81 4 -33 4 -60 0 -60 -4 0 -38 30
-75 67 -60 60 -70 66 -83 52 -13 -13 0 -29 114 -143 114 -113 132 -128 146
-116 14 12 12 17 -20 50 -22 23 -35 45 -35 63 0 32 -3 32 85 8 64 -18 71 -18
88 -4 9 9 15 18 13 21 -3 2 -44 14 -93 26 l-88 22 -10 58 c-10 58 -10 58 -29
37z"/>
</g>
</svg>
